0
SECTION
2
HEADER
9
$INSUNITS
70
4
9
$ACADVER
1
AC1014
9
$HANDSEED
5
FFFF
0
ENDSEC
0
SECTION
2
TABLES
0
TABLE
2
VPORT
5
8
100
AcDbSymbolTable
0
ENDTAB
0
TABLE
2
LTYPE
5
5
100
AcDbSymbolTable
0
LTYPE
5
14
100
AcDbSymbolTableRecord
100
AcDbLinetypeTableRecord
2
BYBLOCK
70
0
0
LTYPE
5
15
100
AcDbSymbolTableRecord
100
AcDbLinetypeTableRecord
2
BYLAYER
70
0
0
ENDTAB
0
TABLE
2
LAYER
5
2
100
AcDbSymbolTable
70
2
0
LAYER
5
50
100
AcDbSymbolTableRecord
100
AcDbLayerTableRecord
2
0
70
0
6
CONTINUOUS
0
ENDTAB
0
TABLE
2
STYLE
5
3
100
AcDbSymbolTable
70
1
0
STYLE
5
11
100
AcDbSymbolTableRecord
100
AcDbTextStyleTableRecord
2
STANDARD
70
0
0
ENDTAB
0
TABLE
2
VIEW
5
6
100
AcDbSymbolTable
70
0
0
ENDTAB
0
TABLE
2
UCS
5
7
100
AcDbSymbolTable
70
0
0
ENDTAB
0
TABLE
2
APPID
5
9
100
AcDbSymbolTable
70
2
0
APPID
5
12
100
AcDbSymbolTableRecord
100
AcDbRegAppTableRecord
2
ACAD
70
0
0
ENDTAB
0
TABLE
2
DIMSTYLE
5
A
100
AcDbSymbolTable
70
1
0
ENDTAB
0
TABLE
2
BLOCK_RECORD
5
1
100
AcDbSymbolTable
70
1
0
BLOCK_RECORD
5
1F
100
AcDbSymbolTableRecord
100
AcDbBlockTableRecord
2
*MODEL_SPACE
0
BLOCK_RECORD
5
1B
100
AcDbSymbolTableRecord
100
AcDbBlockTableRecord
2
*PAPER_SPACE
0
ENDTAB
0
ENDSEC
0
SECTION
2
BLOCKS
0
BLOCK
5
20
100
AcDbEntity
100
AcDbBlockBegin
2
*MODEL_SPACE
0
ENDBLK
5
21
100
AcDbEntity
100
AcDbBlockEnd
0
BLOCK
5
1C
100
AcDbEntity
100
AcDbBlockBegin
2
*PAPER_SPACE
0
ENDBLK
5
1D
100
AcDbEntity
100
AcDbBlockEnd
0
ENDSEC
0
SECTION
2
ENTITIES
0
LWPOLYLINE
5
100
100
AcDbEntity
8
0
100
AcDbPolyline
90
4
70
1
43
0.0
10
-35.518509848146778
20
-20.973011446054123
10
-38.518509848146778
20
-20.973011446054119
10
-38.518509848146792
20
-22.973011446054219
10
-35.518509848146792
20
-22.973011446054272
0
LWPOLYLINE
5
101
100
AcDbEntity
8
0
100
AcDbPolyline
90
35
70
1
43
0.0
10
-107.93850985560063
20
-28.029414536222106
10
-107.93850985560061
20
-25.879203172963869
42
-0.30403430423014455
10
-107.31886553476203
20
-24.954362885492753
10
-83.937467341861293
20
-15.338380850668358
42
-0.097855777822537085
10
-78.232132154440166
20
-14.210985162735167
10
-43.898509840696235
20
-14.210985162735135
42
-0.41421356237309503
10
-41.898509840696235
20
-16.210985162735128
10
-41.898509840696221
20
-17.97301144605413
42
0.41421356237309664
10
-39.898509840696221
20
-19.97301144605413
10
-34.13850985559742
20
-19.97301144605397
42
0.41421356237309342
10
-32.13850985559742
20
-17.973011446054201
10
-32.138509855597533
20
-16.210985162735128
42
-0.41421356237309764
10
-30.13850985559742
20
-14.210985162735028
10
-28.369390933686223
20
-14.210985162735128
42
0.17529810958811887
10
-26.450217797838846
20
-13.516798354353599
42
0.019514017134397654
10
-25.116714892137114
20
-12.315806514650383
42
-0.19548082171442849
10
-23.023606594676529
20
-11.464968596742334
10
-9.0000076293945082
20
-11.464968596742025
42
-0.41421356237309337
10
-6.0000076293944939
20
-14.464968596742054
10
-6.000007629991142
20
-20.864966478964106
10
-6.0000076293943394
20
-36.464966776988135
42
-0.41421356237310458
10
-9.0000076293944087
20
-39.464966776988106
10
-24.326740630944013
20
-39.464966776988248
42
0.41421356237309503
10
-27.326740630943984
20
-42.464966776988291
10
-27.32674063094505
20
-50.52983878463408
42
-0.41421356237309503
10
-34.826740630945125
20
-58.029838784634151
10
-117.0000076293946
20
-58.029838784634023
42
-0.41421356237310125
10
-122.00000762939466
20
-53.02983878463408
10
-122.00000762939453
20
-39.029414536222049
42
-0.41421356237310375
10
-119.00000762939462
20
-36.02941453622222
10
-108.93888862426792
20
-36.029414536223143
42
0.41421356237089946
10
-107.93888862427136
20
-35.029414536219079
10
-107.93888862427131
20
-34.029414536222049
10
-105.39850985560062
20
-34.029414536221978
10
-105.39850985560062
20
-28.029414536222035
0
CIRCLE
5
102
100
AcDbEntity
8
0
100
AcDbCircle
10
-96.249621459813824
20
-46.029414536222006
30
0
40
2.5499999999999998
210
0
220
0
230
1
0
CIRCLE
5
103
100
AcDbEntity
8
0
100
AcDbCircle
10
-112.24962145981372
20
-46.029414536222077
30
0
40
2.5499999999999998
210
0
220
0
230
1
0
CIRCLE
5
104
100
AcDbEntity
8
0
100
AcDbCircle
10
-34.826740630942808
20
-28.529838784634052
30
0
40
1.5249999999999899
210
0
220
0
230
1
0
CIRCLE
5
105
100
AcDbEntity
8
0
100
AcDbCircle
10
-34.826740630945125
20
-50.52983878463408
30
0
40
1.5250000000000099
210
0
220
0
230
1
0
LWPOLYLINE
5
106
100
AcDbEntity
8
0
100
AcDbPolyline
90
4
70
1
43
0.0
10
-47.398509855600622
20
-21.229414536229996
10
-55.400000639259943
20
-21.229414536229996
42
-0.99999999999999989
10
-55.400000639259908
20
-18.229414536230024
10
-47.398509855600622
20
-18.229414536230024
42
-0.99999999999999989
0
LWPOLYLINE
5
107
100
AcDbEntity
8
0
100
AcDbPolyline
90
4
70
1
43
0.0
10
-78.398509855600651
20
-21.229414536230067
10
-86.398509861541555
20
-21.229414536228859
42
-0.99999998028761683
10
-86.398509802395651
20
-18.229414536207003
10
-78.398509855600636
20
-18.229414536230095
42
-0.99999999999999989
0
LWPOLYLINE
5
108
100
AcDbEntity
8
0
100
AcDbPolyline
90
4
70
1
43
0.0
10
-62.898509855601134
20
-46.279414536230057
42
0.99999999999999989
10
-62.898509855601134
20
-24.179414536230048
10
-70.898509855600636
20
-24.179414536230013
42
0.99999999999999989
10
-70.898509855599229
20
-46.279414536230057
0
LWPOLYLINE
5
109
100
AcDbEntity
8
0
100
AcDbPolyline
90
4
70
1
43
0.0
10
-86.398509855600608
20
-49.229414536228973
10
-78.398509855600608
20
-49.229414536228973
42
-0.99999999999999989
10
-78.398509855600608
20
-52.229414536229086
10
-86.398509855600608
20
-52.229414536228944
42
-0.99999999999999989
0
LWPOLYLINE
5
110
100
AcDbEntity
8
0
100
AcDbPolyline
90
4
70
1
43
0.0
10
-47.39850985560102
20
-52.22941453623001
42
0.99999999999999989
10
-47.39850985560232
20
-49.229414536230038
10
-55.398509855601716
20
-49.229414536230038
42
0.99999999999999989
10
-55.398509855601702
20
-52.22941453623001
0
CIRCLE
5
111
100
AcDbEntity
8
0
100
AcDbCircle
10
-16.000007629394641
20
-33.214966641978236
30
0
40
2.5499999999999998
210
0
220
0
230
1
0
CIRCLE
5
112
100
AcDbEntity
8
0
100
AcDbCircle
10
-16.00000762939441
20
-17.714966641978265
30
0
40
2.5499999999999998
210
0
220
0
230
1
0
ENDSEC
0
SECTION
2
OBJECTS
0
DICTIONARY
5
C
100
AcDbDictionary
3
ACAD_GROUP
350
D
3
ACAD_MLINESTYLE
350
17
0
DICTIONARY
5
D
100
AcDbDictionary
0
DICTIONARY
5
1A
330
C
100
AcDbDictionary
0
DICTIONARY
5
17
100
AcDbDictionary
0
ENDSEC
0
EOF
