0
SECTION
2
HEADER
9
$INSUNITS
70
4
9
$ACADVER
1
AC1014
9
$HANDSEED
5
FFFF
0
ENDSEC
0
SECTION
2
TABLES
0
TABLE
2
VPORT
5
8
100
AcDbSymbolTable
0
ENDTAB
0
TABLE
2
LTYPE
5
5
100
AcDbSymbolTable
0
LTYPE
5
14
100
AcDbSymbolTableRecord
100
AcDbLinetypeTableRecord
2
BYBLOCK
70
0
0
LTYPE
5
15
100
AcDbSymbolTableRecord
100
AcDbLinetypeTableRecord
2
BYLAYER
70
0
0
ENDTAB
0
TABLE
2
LAYER
5
2
100
AcDbSymbolTable
70
2
0
LAYER
5
50
100
AcDbSymbolTableRecord
100
AcDbLayerTableRecord
2
0
70
0
6
CONTINUOUS
0
ENDTAB
0
TABLE
2
STYLE
5
3
100
AcDbSymbolTable
70
1
0
STYLE
5
11
100
AcDbSymbolTableRecord
100
AcDbTextStyleTableRecord
2
STANDARD
70
0
0
ENDTAB
0
TABLE
2
VIEW
5
6
100
AcDbSymbolTable
70
0
0
ENDTAB
0
TABLE
2
UCS
5
7
100
AcDbSymbolTable
70
0
0
ENDTAB
0
TABLE
2
APPID
5
9
100
AcDbSymbolTable
70
2
0
APPID
5
12
100
AcDbSymbolTableRecord
100
AcDbRegAppTableRecord
2
ACAD
70
0
0
ENDTAB
0
TABLE
2
DIMSTYLE
5
A
100
AcDbSymbolTable
70
1
0
ENDTAB
0
TABLE
2
BLOCK_RECORD
5
1
100
AcDbSymbolTable
70
1
0
BLOCK_RECORD
5
1F
100
AcDbSymbolTableRecord
100
AcDbBlockTableRecord
2
*MODEL_SPACE
0
BLOCK_RECORD
5
1B
100
AcDbSymbolTableRecord
100
AcDbBlockTableRecord
2
*PAPER_SPACE
0
ENDTAB
0
ENDSEC
0
SECTION
2
BLOCKS
0
BLOCK
5
20
100
AcDbEntity
100
AcDbBlockBegin
2
*MODEL_SPACE
0
ENDBLK
5
21
100
AcDbEntity
100
AcDbBlockEnd
0
BLOCK
5
1C
100
AcDbEntity
100
AcDbBlockBegin
2
*PAPER_SPACE
0
ENDBLK
5
1D
100
AcDbEntity
100
AcDbBlockEnd
0
ENDSEC
0
SECTION
2
ENTITIES
0
LWPOLYLINE
5
100
100
AcDbEntity
8
0
100
AcDbPolyline
90
27
70
1
43
0.0
10
-82.001911169809475
20
-11.846422982089916
42
0.097855777822537487
10
-87.70724635723063
20
-12.973818670023118
10
-110.32060353234385
20
-22.27393128728302
42
0.30352094078697361
10
-110.93850985560046
20
-23.19805488409898
10
-110.93850985560047
20
-25.529414536222035
10
-108.39850985560048
20
-25.529414536222035
10
-108.39850985560048
20
-31.529414536221978
10
-110.93888862427119
20
-31.529414536221978
10
-110.93888862427121
20
-32.529414536219008
42
-0.41421356237089424
10
-111.93888862426776
20
-33.529414536223072
10
-122.00000762939446
20
-33.529414536222149
42
0.41421356237310542
10
-125.00000762939447
20
-36.529414536221978
10
-125.00000762939449
20
-50.529838784634009
42
0.41421356237310125
10
-120.00000762939443
20
-55.529838784634009
10
-37.826740630944933
20
-55.52983878463408
42
0.41421356237309503
10
-30.326740630944983
20
-48.029838784634009
10
-30.326740630943796
20
-40.100404596343111
42
-0.41421356237309503
10
-27.326740630943753
20
-37.100404596343068
10
-12.000007629394167
20
-37.100404596343068
42
0.41421356237310458
10
-9.0000076293941689
20
-34.100404596343097
10
-9.0000076299908827
20
-18.500404298319069
10
-9.0000076293942524
20
-12.100406416097016
42
0.41421356237309503
10
-12.000007629394283
20
-9.1004064160970444
10
-26.023606594676281
20
-9.1004064160971545
42
0.19548082171444225
10
-28.116714892137381
20
-9.9512443340049543
42
-0.019514017134394396
10
-29.450217797838498
20
-11.152236173708301
42
-0.17529810958812597
10
-31.369390933685857
20
-11.84642298208985
0
CIRCLE
5
101
100
AcDbEntity
8
0
100
AcDbCircle
10
-19.000007629394169
20
-15.350404461333085
30
0
40
2.5499999999999998
210
0
220
0
230
1
0
CIRCLE
5
102
100
AcDbEntity
8
0
100
AcDbCircle
10
-19.000007629394382
20
-30.850404461333056
30
0
40
2.5499999999999998
210
0
220
0
230
1
0
CIRCLE
5
103
100
AcDbEntity
8
0
100
AcDbCircle
10
-99.249621459813653
20
-43.529414536222006
30
0
40
2.5499999999999998
210
0
220
0
230
1
0
CIRCLE
5
104
100
AcDbEntity
8
0
100
AcDbCircle
10
-115.24962145981355
20
-43.529414536222006
30
0
40
2.5499999999999998
210
0
220
0
230
1
0
CIRCLE
5
105
100
AcDbEntity
8
0
100
AcDbCircle
10
-37.826740630942659
20
-26.029838784633981
30
0
40
1.5249999999999899
210
0
220
0
230
1
0
CIRCLE
5
106
100
AcDbEntity
8
0
100
AcDbCircle
10
-37.826740630944933
20
-48.029838784634009
30
0
40
1.5250000000000099
210
0
220
0
230
1
0
LWPOLYLINE
5
107
100
AcDbEntity
8
0
100
AcDbPolyline
90
4
70
1
43
0.0
10
-50.398509855600402
20
-18.729414536229996
10
-58.400000639259737
20
-18.729414536229996
42
-0.99999999999999989
10
-58.400000639259737
20
-15.729414536230024
10
-50.398509855600402
20
-15.729414536230024
42
-0.99999999999999989
0
LWPOLYLINE
5
108
100
AcDbEntity
8
0
100
AcDbPolyline
90
4
70
1
43
0.0
10
-81.398509855600423
20
-18.729414536229996
10
-89.398509861541342
20
-18.729414536228859
42
-0.99999998028761683
10
-89.398509802395438
20
-15.729414536207003
10
-81.398509855600423
20
-15.729414536230024
42
-0.99999999999999989
0
LWPOLYLINE
5
109
100
AcDbEntity
8
0
100
AcDbPolyline
90
4
70
1
43
0.0
10
-65.898509855600935
20
-43.779414536229986
42
0.99999999999999989
10
-65.898509855600935
20
-21.679414536229977
10
-73.898509855600437
20
-21.679414536229942
42
0.99999999999999989
10
-73.898509855599016
20
-43.779414536229986
0
LWPOLYLINE
5
110
100
AcDbEntity
8
0
100
AcDbPolyline
90
4
70
1
43
0.0
10
-89.398509855600395
20
-46.729414536228973
10
-81.398509855600423
20
-46.729414536228902
42
-0.99999999999999989
10
-81.398509855600423
20
-49.729414536229015
10
-89.398509855600395
20
-49.729414536228944
42
-0.99999999999999989
0
LWPOLYLINE
5
111
100
AcDbEntity
8
0
100
AcDbPolyline
90
4
70
1
43
0.0
10
-50.398509855600835
20
-49.72941453623001
42
0.99999999999999989
10
-50.39850985560215
20
-46.729414536230038
10
-58.39850985560151
20
-46.729414536230038
42
0.99999999999999989
10
-58.39850985560151
20
-49.72941453623001
0
ENDSEC
0
SECTION
2
OBJECTS
0
DICTIONARY
5
C
100
AcDbDictionary
3
ACAD_GROUP
350
D
3
ACAD_MLINESTYLE
350
17
0
DICTIONARY
5
D
100
AcDbDictionary
0
DICTIONARY
5
1A
330
C
100
AcDbDictionary
0
DICTIONARY
5
17
100
AcDbDictionary
0
ENDSEC
0
EOF
